<svg xmlns="http://www.w3.org/2000/svg">
<path d="M7.287,13.5c0.144-2.294,2.034-4.12,4.363-4.12c0.269,0,0.53,0.028,0.788,0.074c-0.479-1.338-1.743-2.3-3.245-2.3
	c-1.912,0-3.462,1.549-3.462,3.46C5.731,11.821,6.351,12.881,7.287,13.5z"/> <path d="M21.053,14.068c0.038-0.227,0.057-0.459,0.057-0.691c0-2.33-1.896-4.227-4.227-4.227c-1.401,0-2.691,0.688-3.476,1.822
	c-0.479-0.257-1.009-0.391-1.559-0.391c-1.827,0-3.313,1.486-3.313,3.313c0,0.121,0.006,0.244,0.021,0.367
	c-1.182,0.443-1.999,1.592-1.999,2.883c0,1.697,1.38,3.078,3.077,3.078h11.288c1.697,0,3.078-1.381,3.078-3.078
	C24,15.492,22.689,14.137,21.053,14.068z"/> <g> <path d="M9.078,3C8.649,3.003,8.303,3.353,8.304,3.78l0.008,1.68c0.001,0.428,0.35,0.775,0.776,0.775h0.004h0.001
		c0.428-0.003,0.774-0.354,0.773-0.781L9.86,3.774C9.857,3.348,9.509,3,9.078,3z"/> <path d="M4.985,10.33C4.982,9.903,4.634,9.556,4.204,9.556L2.525,9.563c-0.428,0-0.775,0.349-0.775,0.781
		c0.001,0.427,0.351,0.773,0.777,0.773H2.53l1.681-0.006C4.638,11.108,4.985,10.759,4.985,10.33z M2.527,10.867L2.527,10.867
		L2.527,10.867L2.527,10.867z"/> <path d="M4.976,7.438c0.146,0.144,0.342,0.224,0.548,0.224c0.207,0,0.402-0.08,0.549-0.227l0.031-0.034
		C6.232,7.257,6.302,7.074,6.301,6.88C6.3,6.673,6.217,6.478,6.069,6.333l-1.19-1.182c-0.283-0.282-0.77-0.295-1.066-0.029
		L3.777,5.154c-0.301,0.306-0.299,0.799,0.005,1.1L4.976,7.438z"/> <path d="M5.081,13.227l-1.185,1.191c-0.29,0.293-0.299,0.762-0.027,1.064l0.032,0.035c0.147,0.146,0.343,0.227,0.549,0.227
		c0.209,0,0.405-0.082,0.552-0.23l1.182-1.193c0.302-0.301,0.302-0.793-0.003-1.1C5.883,12.928,5.372,12.932,5.081,13.227z"/> <path d="M14.3,5.168l-0.065-0.064c-0.296-0.262-0.785-0.248-1.066,0.036l-1.184,1.192c-0.3,0.303-0.299,0.795,0.002,1.098
		l0.035,0.032c0.143,0.126,0.324,0.195,0.516,0.195c0.209,0,0.405-0.082,0.552-0.23l1.182-1.191c0.146-0.146,0.228-0.342,0.228-0.55
		C14.498,5.493,14.428,5.311,14.3,5.168z"/> </g>
</svg>