<svg xmlns="http://www.w3.org/2000/svg">
<path d="M15.445,8.562c0.041-0.014,1.381,0.458,1.732-0.14c0.158-0.269,0.953-0.154,1.186-0.267
		c0.502-0.244,0.488-0.776,0.705-0.889c0.441-0.227,1.205,0.215,1.475-0.518c0.172-0.465,0.424-0.98-1.197-1.728
		c-1.92-0.886-0.939,0.735-2.58,0.627c-1.713-0.111-1.551,1.325-1.422,1.641C15.564,7.825,15.553,8.241,15.445,8.562z"/> <path d="M11.183,5.915c0.089,0.629,0.825,0.575,0.897,1.372c0.074,0.798-0.85,1.324-0.887,1.793
		c-0.036,0.456,0.348,1.074,0.541,1.529c0.819-1.225,1.675-1.251,1.953-1.218c0.27,0.033,0.547-0.304,0.734-0.448
		c0.316-0.245,0.76-0.662,0.268-1.387c-1.15-1.687,0.957-1.848,0.389-3.051c-0.402-0.843-1.055-0.159-1.84-1.816
		c-0.661-1.402-1.813-0.299-2.099,0.107c-0.438,0.62,0.391,1.201,0.479,1.689C11.708,4.975,11.09,5.268,11.183,5.915z"/> <path d="M20.34,9.642c-0.5-0.013-1.303-0.837-1.736-0.865c-0.434-0.026-1.281,0.857-1.717,0.885
		c-0.436,0.026-0.99-0.389-1.332-0.352c-0.342,0.036-0.703,0.489-1.219,0.638c-0.313,0.09-1.834-0.207-2.583,1.842
		c-0.387,1.057,0.227,1.533,0.227,1.533s0.913-0.531,2.466-0.031c0.836,0.27,1.125-0.644,1.791-0.684
		c0.666-0.041,1.01,0.677,1.77,0.731c0.762,0.055,1.492-1.005,1.971-1.21c0.475-0.202,2.027,0.295,2.266-1.018
		C22.479,9.831,20.844,9.655,20.34,9.642z"/> <path d="M12.653,14.929c-0.667-0.057-1.123-0.416-1.505-0.774c-0.359-0.382-0.717-0.839-0.774-1.505
		c-0.192-2.275-2.889-3.018-5.207-0.188c-1.918,2.34-0.778,5.68-0.631,5.98c0.588,1.189-0.701,3.025-2.022,3.217
		c-0.599,0.088-0.708,0.24-0.144,0.292c0.796,0.072,1.521,0.172,2.363-0.599c0.385-0.351,1.388-0.655,2.019-0.523
		c0.502,0.105,3.748,1.224,6.089-0.693C15.67,17.816,14.928,15.12,12.653,14.929z M5.361,17.716c0,0-0.506-1.273,0.173-3.322
		c1.107-3.348,3.778-2.251,3.778-2.251C7.133,12.522,5.444,14.683,5.361,17.716z"/>
</svg>